{
    "asset" : {
        "generator" : "Khronos glTF Blender I/O v1.2.57",
        "version" : "2.0"
    },
    "scene" : 0,
    "scenes" : [
        {
            "name" : "Scene",
            "nodes" : [
                0
            ]
        }
    ],
    "nodes" : [
        {
            "extras" : {
                "currentUVSet" : "map1"
            },
            "mesh" : 0,
            "name" : "CH_Bee_lp:LP",
            "rotation" : [
                0.7071068286895752,
                0,
                0,
                0.7071067094802856
            ]
        }
    ],
    "materials" : [
        {
            "doubleSided" : true,
            "emissiveFactor" : [
                0,
                0,
                0
            ],
            "name" : "lambert1",
            "pbrMetallicRoughness" : {
                "baseColorTexture" : {
                    "index" : 0,
                    "texCoord" : 0
                },
                "metallicFactor" : 0,
                "roughnessFactor" : 0.5527864098548889
            }
        }
    ],
    "meshes" : [
        {
            "name" : "Mesh.001",
            "primitives" : [
                {
                    "attributes" : {
                        "POSITION" : 0,
                        "NORMAL" : 1,
                        "TEXCOORD_0" : 2
                    },
                    "indices" : 3,
                    "material" : 0
                }
            ]
        }
    ],
    "textures" : [
        {
            "source" : 0
        }
    ],
    "images" : [
        {
            "mimeType" : "image/png",
            "name" : "CH_Bee_lp_D",
            "uri" : "CH_Bee_lp_D.png"
        }
    ],
    "accessors" : [
        {
            "bufferView" : 0,
            "componentType" : 5126,
            "count" : 2173,
            "max" : [
                1.978397011756897,
                5.4189372062683105,
                0.0008859999943524599
            ],
            "min" : [
                -1.978397011756897,
                -2.7518680095672607,
                -6.580328941345215
            ],
            "type" : "VEC3"
        },
        {
            "bufferView" : 1,
            "componentType" : 5126,
            "count" : 2173,
            "type" : "VEC3"
        },
        {
            "bufferView" : 2,
            "componentType" : 5126,
            "count" : 2173,
            "type" : "VEC2"
        },
        {
            "bufferView" : 3,
            "componentType" : 5123,
            "count" : 10680,
            "type" : "SCALAR"
        }
    ],
    "bufferViews" : [
        {
            "buffer" : 0,
            "byteLength" : 26076,
            "byteOffset" : 0
        },
        {
            "buffer" : 0,
            "byteLength" : 26076,
            "byteOffset" : 26076
        },
        {
            "buffer" : 0,
            "byteLength" : 17384,
            "byteOffset" : 52152
        },
        {
            "buffer" : 0,
            "byteLength" : 21360,
            "byteOffset" : 69536
        }
    ],
    "buffers" : [
        {
            "byteLength" : 90896,
            "uri" : "Bee.bin"
        }
    ]
}
